<svg width="120" height="120" xmlns="http://www.w3.org/2000/svg"><path fill-rule="evenodd" clip-rule="evenodd" d="M119 60c0 32.585-26.415 59-59 59S1 92.585 1 60 27.415 1 60 1s59 26.415 59 59zm1 0c0 33.137-26.863 60-60 60S0 93.137 0 60 26.863 0 60 0s60 26.863 60 60zm-33 .386S74.881 70.92 74.586 71.214c-.06.06-.121.117-.18.172-.52.49-.943.887-.414 2.466.588 1.758 1.178 4.113 1.178 4.113s-11.235-2.355-12.414-2.648c-1.05-.106-2.172.281-2.172 1.465 0 1.183.685 13.218.685 13.218h-3.54s.684-12.047.684-13.218c0-1.172-1.133-1.57-2.16-1.465-1.193.293-12.429 2.648-12.429 2.648s.59-2.356 1.192-4.114c.522-1.589.1-1.98-.43-2.474l-.172-.162C44.11 70.918 32 60.387 32 60.387l2.066-.893c1.18-.574.873-1.337.59-2.04-.295-.89-2.372-7.885-2.372-7.885s5.617 1.171 6.81 1.465c.885.28 1.18-.293 1.475-.88.295-.586 1.77-3.785 1.77-3.785s6.208 7.007 6.504 7.3c1.191.882 2.372 0 2.077-1.17 0-1.171-3.26-15.187-3.26-15.187s3.555 2.04 4.734 2.625c.899.585 1.487.585 2.077-.586C55.063 38.473 59.49 30 59.49 30s4.438 8.473 5.038 9.352c.59 1.172 1.192 1.172 2.077.586 1.181-.586 4.734-2.625 4.734-2.625S68.08 51.33 68.08 52.5c-.295 1.17.899 2.05 2.077 1.17.297-.279 6.504-7.3 6.504-7.3s1.473 3.211 1.77 3.797c.297.586.59 1.16 1.476.88 1.18-.296 6.81-1.466 6.81-1.466s-2.09 6.995-2.373 7.886c-.283.692-.588 1.465.59 2.04l2.066.879z" fill="#566BA9"/></svg>