<svg viewBox="0 0 265 62" fill="none" xmlns="http://www.w3.org/2000/svg"><path fill-rule="evenodd" clip-rule="evenodd" d="M106.08 16.49h-7.986l3.888-9.478 4.098 9.477zm-2.223-15.415L93.512 26.28h-2.916v.485h6.562v-.485h-3.09l3.852-9.304h8.333l4.026 9.304h-3.228v.485h11.665v-.485h-2.987L104.795 1.075h-.938zM87.052 6.718c.357.844.664 1.648.92 2.412h.451V2.048h-.556c-.07.324-.186.527-.348.608-.162.08-.404.121-.728.121-.3 0-.672-.069-1.111-.208-.44-.138-.932-.283-1.476-.435a34.384 34.384 0 00-1.77-.434 9.714 9.714 0 00-2.065-.207c-1.482 0-2.992.306-4.53.919a13.805 13.805 0 00-4.185 2.621c-1.25 1.134-2.274 2.5-3.072 4.097-.798 1.597-1.197 3.38-1.197 5.346 0 1.806.358 3.484 1.076 5.034a13.275 13.275 0 002.864 4.044 13.38 13.38 0 004.148 2.708c1.574.66 3.206.99 4.896.99.74 0 1.445-.064 2.117-.191a26.789 26.789 0 001.857-.416c.567-.15 1.07-.29 1.511-.418.44-.126.799-.19 1.076-.19.323 0 .567.052.729.157.161.104.3.294.416.572h.555v-7.36h-.555a11.71 11.71 0 01-.971 2.742 9.625 9.625 0 01-1.632 2.344 7.85 7.85 0 01-2.24 1.65c-.846.415-1.788.623-2.828.623-1.298 0-2.414-.184-3.351-.555-.936-.37-1.7-1.018-2.291-1.944-.59-.925-1.024-2.175-1.302-3.748-.278-1.574-.417-3.564-.417-5.972 0-1.828.07-3.512.209-5.05.14-1.541.456-2.866.954-3.976.498-1.112 1.232-1.978 2.205-2.605.971-.624 2.303-.937 3.993-.937 1.249 0 2.296.227 3.14.678a6.786 6.786 0 012.119 1.736 9.846 9.846 0 011.389 2.326zm40.977-4.67l11.562 16.525h.069V2.533h-3.195v-.485h6.943v.485h-3.193v24.232h-.938L123.655 4.514h-.07V26.28h3.194v.485h-6.943v-.485h3.195V2.533h-3.195v-.485h8.193zm29.932 14.441h-7.985l3.888-9.477 4.097 9.477zM155.74 1.075L145.395 26.28h-2.916v.485h6.561v-.485h-3.091l3.854-9.304h8.332l4.026 9.304h-3.228v.485h11.666v-.485h-2.987L156.677 1.075h-.937zm26.012 25.308c1.503 0 2.789-.178 3.853-.538 1.064-.359 1.962-.843 2.691-1.458a7.293 7.293 0 001.736-2.1c.428-.787.751-1.615.971-2.482.221-.868.365-1.735.434-2.604.07-.868.104-1.683.104-2.447 0-1.875-.116-3.57-.346-5.085-.232-1.516-.69-2.813-1.371-3.889-.684-1.077-1.644-1.904-2.883-2.482-1.238-.578-2.862-.867-4.876-.867-.464 0-.88.005-1.25.016a5.84 5.84 0 00-.903.086V26.28c.671.07 1.284.103 1.84.103zm-10.068-23.85v-.485h3.193c1.182 0 2.362-.018 3.542-.052 1.18-.035 2.36-.052 3.541-.052 1.041 0 2.14.069 3.299.209 1.156.138 2.302.386 3.436.745 1.134.36 2.21.84 3.229 1.44a10.662 10.662 0 012.707 2.292c.788.926 1.412 2.026 1.874 3.297.464 1.275.696 2.768.696 4.48 0 1.69-.232 3.171-.696 4.444-.462 1.273-1.081 2.372-1.856 3.297a10.611 10.611 0 01-2.656 2.291 15.27 15.27 0 01-3.108 1.441 17.28 17.28 0 01-3.192.748 22.702 22.702 0 01-2.934.207c-1.32 0-2.634-.012-3.942-.034-1.306-.023-2.62-.035-3.94-.035h-3.193v-.486h3.193V2.533h-3.193zm38.909 0v-.485h-11.422v.485h3.194V26.28h-3.194v.485h11.422v-.485h-3.194V2.533h3.194zm8.739 13.956h7.984l-4.096-9.477-3.888 9.477zm-4.583 9.79l10.346-25.204h.937l10.935 25.205h2.986v.485h-11.665v-.485h3.229l-4.026-9.304h-8.332l-3.854 9.304h3.088v.485h-6.56v-.485h2.916zm46.078-7.706L249.265 2.048h-8.192v.485h3.195V26.28h-3.195v.485h6.944v-.485h-3.193V4.513h.068l15.623 22.252h.937V2.534h3.193v-.485h-6.942v.485h3.194v16.04h-.07z" fill="#D10019"/><path fill-rule="evenodd" clip-rule="evenodd" d="M195.005 50.998h7.987l-4.097-9.476-3.89 9.476zm-4.581 9.79l10.345-25.203h.938l10.934 25.203h2.987v.487h-11.665v-.487h3.229l-4.027-9.303h-8.332l-3.853 9.303h3.088v.487h-6.561v-.487h2.917zm-6.075-19.562c.359.846.666 1.649.92 2.412h.452v-7.08h-.556c-.069.323-.185.526-.346.607-.163.08-.406.121-.73.121-.301 0-.672-.07-1.11-.209a48.215 48.215 0 00-1.476-.434 35.03 35.03 0 00-1.771-.434 9.732 9.732 0 00-2.065-.207c-1.482 0-2.992.306-4.53.92a13.803 13.803 0 00-4.185 2.62c-1.249 1.134-2.273 2.5-3.071 4.096-.798 1.598-1.198 3.381-1.198 5.347 0 1.806.358 3.485 1.076 5.035a13.286 13.286 0 002.864 4.043 13.392 13.392 0 004.149 2.708c1.573.66 3.204.99 4.895.99.74 0 1.445-.064 2.117-.191a26.43 26.43 0 001.857-.416c.567-.15 1.071-.29 1.511-.418.439-.127.797-.19 1.076-.19.324 0 .567.052.728.157.163.104.301.294.417.572h.556v-7.36h-.556a11.75 11.75 0 01-.972 2.743 9.664 9.664 0 01-1.63 2.342 7.896 7.896 0 01-2.24 1.65c-.844.416-1.787.625-2.83.625-1.296 0-2.413-.185-3.35-.555-.936-.371-1.7-1.02-2.291-1.945-.589-.926-1.024-2.175-1.303-3.749-.277-1.574-.416-3.563-.416-5.972 0-1.828.071-3.51.21-5.05.138-1.54.456-2.864.953-3.975.497-1.112 1.232-1.98 2.205-2.605.972-.625 2.303-.937 3.992-.937 1.25 0 2.298.227 3.142.678a6.77 6.77 0 012.117 1.735 9.77 9.77 0 011.389 2.326zm-46.561 19.128c-1.064.36-2.348.539-3.852.539a17.57 17.57 0 01-1.84-.105V37.043a5.74 5.74 0 01.903-.087c.369-.011.786-.017 1.249-.017 2.013 0 3.64.29 4.877.868 1.238.578 2.199 1.405 2.882 2.482.682 1.075 1.14 2.372 1.372 3.889.23 1.515.346 3.21.346 5.085 0 .764-.034 1.58-.104 2.447a15.626 15.626 0 01-.434 2.605 10.676 10.676 0 01-.971 2.482 7.316 7.316 0 01-1.737 2.1c-.728.613-1.626 1.098-2.691 1.457zm-13.92-23.797v.486h3.193v23.745h-3.193v.487h3.193c1.32 0 2.634.011 3.94.035 1.308.022 2.622.034 3.942.034.901 0 1.88-.07 2.933-.207a17.312 17.312 0 003.193-.748 15.391 15.391 0 003.107-1.44 10.613 10.613 0 002.656-2.291c.776-.926 1.395-2.026 1.857-3.298.463-1.273.695-2.754.695-4.444 0-1.712-.232-3.205-.695-4.48-.462-1.272-1.088-2.371-1.874-3.297a10.666 10.666 0 00-2.707-2.29 15.618 15.618 0 00-3.229-1.441 18.727 18.727 0 00-3.436-.747 27.747 27.747 0 00-3.3-.208c-1.179 0-2.36.017-3.54.052-1.18.034-2.36.052-3.542.052h-3.193zm-47.56 0l6.005 17.288h.07l6.11-17.288h8.679v.486h-3.194v23.745h3.194v.487H85.785v-.487h3.159V37.043h-.069l-8.54 24.232h-.556l-8.575-24.232h-.07v23.745h3.195v.487h-6.944v-.487h3.195V37.043h-3.195v-.486h8.922zm43.811 0v5.936h-.452c-.115-.393-.312-.896-.59-1.51a7.491 7.491 0 00-1.162-1.788c-.499-.578-1.14-1.081-1.927-1.51-.788-.428-1.748-.642-2.883-.642h-5.52V47.77h1.946c.856 0 1.58-.122 2.169-.364a3.912 3.912 0 001.476-1.042 5.69 5.69 0 00.972-1.63c.253-.638.463-1.35.624-2.137h.452v10.797h-.452a20.12 20.12 0 00-.572-1.945 5.827 5.827 0 00-.885-1.648 4.08 4.08 0 00-1.371-1.13c-.545-.276-1.221-.414-2.031-.414h-2.328v12.531h5.695c1.064 0 2.024-.179 2.881-.536a7.136 7.136 0 002.274-1.513 8.598 8.598 0 001.649-2.272 12.33 12.33 0 001.007-2.796h.452v7.604H99.358v-.487h3.194V37.043h-3.194v-.486h20.761zm42.658 0v.486h-3.194v23.745h3.194v.487h-11.421v-.487h3.193V37.043h-3.193v-.486h11.421zm65.595.486v-.486h-11.421v.486h3.193v23.745h-3.193v.487h22.009v-7.846h-.451c-.301 1.343-.724 2.482-1.266 3.419-.546.937-1.158 1.701-1.84 2.292-.683.59-1.412 1.012-2.187 1.266a7.344 7.344 0 01-2.308.382h-5.729V37.043h3.193z" fill="#2C4694"/><path d="M27.158.103a583.18 583.18 0 00-1.942 3.766c-.907 1.759-1.813 3.526-2.72 5.287-.314.617-.693.92-1.203.92-.223 0-.475-.06-.755-.175-.566-.242-1.098-.553-1.64-.839-.743-.396-1.482-.792-2.274-1.22 0 .21-.025.335 0 .453.165.903.353 1.806.514 2.71.678 3.78 1.346 7.556 2.024 11.333.14.792-.032 1.463-.493 1.724-.12.068-.25.1-.385.1-.368 0-.792-.236-1.206-.714-1.186-1.35-2.339-2.723-3.51-4.087-.803-.95-1.617-1.896-2.46-2.888-.077.207-.132.336-.166.471-.255.953-.515 1.91-.772 2.867-.193.693-.576 1.031-1.16 1.031a2.19 2.19 0 01-.41-.043c-1.846-.41-3.688-.824-5.54-1.224-.586-.125-1.18-.243-1.814-.371l.04.296c.72 2.785 1.46 5.565 2.19 8.353.261 1.017.112 1.292-.845 1.748-.832.404-1.658.825-2.552 1.271.407.35.753.661 1.108.965 2.06 1.741 4.118 3.487 6.178 5.233 1.827 1.549 3.64 3.105 5.471 4.64.81.671 1.054 1.328.76 2.334-.338 1.193-.688 2.378-1.041 3.599l.52-.004c1.441-.171 2.87-.343 4.31-.518 1.646-.2 3.3-.42 4.943-.624 1.028-.122 1.531-.26 2.552-.343.033-.004.058-.004.088-.004.687 0 1.118.675 1.094 1.286-.1 2.452-.486 13.824-.486 13.824h2.974l-.343-13.91c-.021-.728.488-1.214 1.146-1.214.067 0 .132.004.2.014 1.224.169 2.04.29 3.259.439 2.545.319 5.089.65 7.635.96.432.05.864.075 1.344.115-.37-1.264-.698-2.445-1.04-3.613-.293-1.02-.065-1.659.75-2.337 1.575-1.314 3.123-2.642 4.683-3.967 2.092-1.766 4.173-3.537 6.264-5.31.593-.508 1.188-1.026 1.823-1.571-.99-.486-1.886-.935-2.801-1.364-.482-.229-.766-.546-.664-1.107.11-.596.225-1.195.379-1.788.631-2.435 1.281-4.869 1.943-7.36l-.462.025c-2.32.51-4.644 1.027-6.96 1.538a1.994 1.994 0 01-.365.039c-.51 0-.883-.275-1.085-.831-.12-.35-.21-.722-.307-1.086-.228-.795-.446-1.588-.7-2.48l-1.83 2.156c-1.417 1.652-2.832 3.308-4.249 4.95-.292.34-.637.593-1.06.593-.118 0-.243-.021-.37-.064-.428-.143-.663-.782-.608-1.467l.022-.16c.785-4.334 1.577-8.657 2.357-12.984.09-.51.159-1.031.25-1.63l-.303.142c-1.122.6-2.247 1.217-3.386 1.796-.39.196-.72.292-1.01.292-.54 0-.935-.34-1.296-1.042-1.46-2.845-2.912-5.69-4.369-8.535l-.24-.396" fill="#D10019"/></svg>