<svg viewBox="0 0 28 30" width="14" height="15" fill="none" xmlns="http://www.w3.org/2000/svg"><path d="M21.406 20.607c.145-.147 6.094-5.414 6.094-5.414l-1.014-.44c-.579-.287-.429-.673-.29-1.02.14-.445 1.165-3.942 1.165-3.942s-2.764.585-3.343.732c-.435.14-.579-.147-.725-.44-.145-.292-.869-1.898-.869-1.898s-3.047 3.51-3.192 3.65c-.579.44-1.165 0-1.02-.585 0-.585 1.6-7.594 1.6-7.594s-1.745 1.02-2.324 1.313c-.435.293-.73.293-1.02-.293C16.173 4.236 13.995 0 13.995 0s-2.173 4.236-2.464 4.676c-.29.585-.578.585-1.02.293-.578-.293-2.323-1.313-2.323-1.313s1.6 7.008 1.6 7.594c.145.585-.435 1.025-1.02.585-.145-.147-3.192-3.65-3.192-3.65s-.725 1.599-.87 1.892c-.144.294-.29.58-.724.44C3.397 10.37.64 9.784.64 9.784s1.02 3.498 1.165 3.943c.139.351.29.733-.29 1.02L.5 15.193s5.945 5.266 6.094 5.414c.296.293.579.44.296 1.319a31.204 31.204 0 00-.585 2.057s5.515-1.178 6.1-1.325c.505-.052 1.061.147 1.061.733S13.13 30 13.13 30h1.738s-.336-6.017-.336-6.61c0-.59.55-.784 1.066-.732.579.147 6.095 1.325 6.095 1.325s-.29-1.178-.579-2.057c-.289-.88.001-1.026.292-1.32z" fill="#D10019"/></svg>